<svg xmlns="http://www.w3.org/2000/svg" xmlns:xlink="http://www.w3.org/1999/xlink" width="100" height="100" viewBox="0 0 100 100"><rect width="100%" height="100%" fill="#ff3e41"></rect><g transform="translate(50 50) scale(0.69 0.69) rotate(0) translate(-50 -50)" style="fill:#240e0e"><svg fill="#240e0e" xmlns:x="http://ns.adobe.com/Extensibility/1.0/" xmlns:i="http://ns.adobe.com/AdobeIllustrator/10.0/" xmlns:graph="http://ns.adobe.com/Graphs/1.0/" xmlns="http://www.w3.org/2000/svg" xmlns:xlink="http://www.w3.org/1999/xlink" version="1.0" x="0px" y="0px" viewBox="0 0 76 90" enable-background="new 0 0 76 90" xml:space="preserve"><g><g i:extraneous="self"><path d="M68.867,32.483c0.019-0.436,0.033-0.871,0.033-1.311C68.899,13.954,55.065,0.002,37.999,0    C20.932,0.002,7.099,13.954,7.097,31.172c0,0.418,0.015,0.833,0.031,1.247c-4.352,3.63-7.126,9.118-7.126,15.26    c0,0-0.963,29.833,37.941,42.321c0,0,38.616-12.419,38.051-42.321C75.878,41.571,73.145,36.113,68.867,32.483z M41.982,68.879    h-7.968l1.458-12.222c-2.973-2.006-2.883-4.832-2.883-4.832c0-1.557,1.25-2.818,2.794-2.818c1.198,0,2.219,0.762,2.616,1.829    c0.397-1.067,1.417-1.829,2.617-1.829c1.543,0,2.764,1.262,2.794,2.818c0.042,2.242-1.46,3.787-2.894,4.754L41.982,68.879z     M56.372,27.886c-8.412,0-15.586,5.341-18.374,12.843c-2.791-7.502-9.962-12.843-18.375-12.843c-2.146,0-4.205,0.359-6.138,1.001    C14.647,16.242,25.164,6.354,37.999,6.33c12.837,0.024,23.355,9.917,24.513,22.566C60.584,28.25,58.525,27.886,56.372,27.886z"></path></g></g></svg></g></svg>